<svg xmlns="http://www.w3.org/2000/svg" version="1.1" xmlns:xlink="http://www.w3.org/1999/xlink" xmlns:svgjs="http://svgjs.com/svgjs" width="1440" height="560" preserveAspectRatio="none" viewBox="0 0 1440 560"><g mask="url(&quot;#SvgjsMask1008&quot;)" fill="none"><rect width="1440" height="560" x="0" y="0" fill="rgba(5, 24, 38, 1)"></rect><path d="M132.57 66.53L203.58 107.53L203.58 189.53L132.57 230.53L61.55 189.53L61.55 107.53zM203.58 -56.47L274.6 -15.47L274.6 66.53L203.58 107.53L132.57 66.53L132.57 -15.47zM203.58 435.53L274.6 476.53L274.6 558.53L203.58 599.53L132.57 558.53L132.57 476.53zM345.61 189.53L416.63 230.53L416.63 312.53L345.61 353.53L274.6 312.53L274.6 230.53zM416.63 312.53L487.65 353.53L487.65 435.53L416.63 476.53L345.61 435.53L345.61 353.53zM345.61 435.53L416.63 476.53L416.63 558.53L345.61 599.53L274.6 558.53L274.6 476.53zM487.65 189.53L558.66 230.53L558.66 312.53L487.65 353.53L416.63 312.53L416.63 230.53zM558.66 558.53L629.68 599.53L629.68 681.53L558.66 722.53L487.65 681.53L487.65 599.53zM842.73 312.53L913.74 353.53L913.74 435.53L842.73 476.53L771.71 435.53L771.71 353.53zM842.73 558.53L913.74 599.53L913.74 681.53L842.73 722.53L771.71 681.53L771.71 599.53zM1126.79 312.53L1197.81 353.53L1197.81 435.53L1126.79 476.53L1055.78 435.53L1055.78 353.53zM1126.79 558.53L1197.81 599.53L1197.81 681.53L1126.79 722.53L1055.78 681.53L1055.78 599.53zM1268.82 312.53L1339.84 353.53L1339.84 435.53L1268.82 476.53L1197.81 435.53L1197.81 353.53zM1197.81 435.53L1268.82 476.53L1268.82 558.53L1197.81 599.53L1126.79 558.53L1126.79 476.53zM1268.82 558.53L1339.84 599.53L1339.84 681.53L1268.82 722.53L1197.81 681.53L1197.81 599.53zM1410.86 66.53L1481.87 107.53L1481.87 189.53L1410.86 230.53L1339.84 189.53L1339.84 107.53zM1481.87 189.53L1552.89 230.53L1552.89 312.53L1481.87 353.53L1410.86 312.53L1410.86 230.53zM1552.89 312.53L1623.9 353.53L1623.9 435.53L1552.89 476.53L1481.87 435.53L1481.87 353.53z" stroke="#03305d" stroke-width="2"></path><path d="M124.37 66.53 a8.2 8.2 0 1 0 16.4 0 a8.2 8.2 0 1 0 -16.4 0zM195.38 107.53 a8.2 8.2 0 1 0 16.4 0 a8.2 8.2 0 1 0 -16.4 0zM195.38 189.53 a8.2 8.2 0 1 0 16.4 0 a8.2 8.2 0 1 0 -16.4 0zM124.37 230.53 a8.2 8.2 0 1 0 16.4 0 a8.2 8.2 0 1 0 -16.4 0zM53.35 189.53 a8.2 8.2 0 1 0 16.4 0 a8.2 8.2 0 1 0 -16.4 0zM53.35 107.53 a8.2 8.2 0 1 0 16.4 0 a8.2 8.2 0 1 0 -16.4 0zM195.38 -56.47 a8.2 8.2 0 1 0 16.4 0 a8.2 8.2 0 1 0 -16.4 0zM266.4 -15.47 a8.2 8.2 0 1 0 16.4 0 a8.2 8.2 0 1 0 -16.4 0zM266.4 66.53 a8.2 8.2 0 1 0 16.4 0 a8.2 8.2 0 1 0 -16.4 0zM124.37 -15.47 a8.2 8.2 0 1 0 16.4 0 a8.2 8.2 0 1 0 -16.4 0zM195.38 435.53 a8.2 8.2 0 1 0 16.4 0 a8.2 8.2 0 1 0 -16.4 0zM266.4 476.53 a8.2 8.2 0 1 0 16.4 0 a8.2 8.2 0 1 0 -16.4 0zM266.4 558.53 a8.2 8.2 0 1 0 16.4 0 a8.2 8.2 0 1 0 -16.4 0zM195.38 599.53 a8.2 8.2 0 1 0 16.4 0 a8.2 8.2 0 1 0 -16.4 0zM124.37 558.53 a8.2 8.2 0 1 0 16.4 0 a8.2 8.2 0 1 0 -16.4 0zM124.37 476.53 a8.2 8.2 0 1 0 16.4 0 a8.2 8.2 0 1 0 -16.4 0zM337.41 189.53 a8.2 8.2 0 1 0 16.4 0 a8.2 8.2 0 1 0 -16.4 0zM408.43 230.53 a8.2 8.2 0 1 0 16.4 0 a8.2 8.2 0 1 0 -16.4 0zM408.43 312.53 a8.2 8.2 0 1 0 16.4 0 a8.2 8.2 0 1 0 -16.4 0zM337.41 353.53 a8.2 8.2 0 1 0 16.4 0 a8.2 8.2 0 1 0 -16.4 0zM266.4 312.53 a8.2 8.2 0 1 0 16.4 0 a8.2 8.2 0 1 0 -16.4 0zM266.4 230.53 a8.2 8.2 0 1 0 16.4 0 a8.2 8.2 0 1 0 -16.4 0zM479.45 353.53 a8.2 8.2 0 1 0 16.4 0 a8.2 8.2 0 1 0 -16.4 0zM479.45 435.53 a8.2 8.2 0 1 0 16.4 0 a8.2 8.2 0 1 0 -16.4 0zM408.43 476.53 a8.2 8.2 0 1 0 16.4 0 a8.2 8.2 0 1 0 -16.4 0zM337.41 435.53 a8.2 8.2 0 1 0 16.4 0 a8.2 8.2 0 1 0 -16.4 0zM408.43 558.53 a8.2 8.2 0 1 0 16.4 0 a8.2 8.2 0 1 0 -16.4 0zM337.41 599.53 a8.2 8.2 0 1 0 16.4 0 a8.2 8.2 0 1 0 -16.4 0zM479.45 189.53 a8.2 8.2 0 1 0 16.4 0 a8.2 8.2 0 1 0 -16.4 0zM550.46 230.53 a8.2 8.2 0 1 0 16.4 0 a8.2 8.2 0 1 0 -16.4 0zM550.46 312.53 a8.2 8.2 0 1 0 16.4 0 a8.2 8.2 0 1 0 -16.4 0zM550.46 558.53 a8.2 8.2 0 1 0 16.4 0 a8.2 8.2 0 1 0 -16.4 0zM621.48 599.53 a8.2 8.2 0 1 0 16.4 0 a8.2 8.2 0 1 0 -16.4 0zM621.48 681.53 a8.2 8.2 0 1 0 16.4 0 a8.2 8.2 0 1 0 -16.4 0zM550.46 722.53 a8.2 8.2 0 1 0 16.4 0 a8.2 8.2 0 1 0 -16.4 0zM479.45 681.53 a8.2 8.2 0 1 0 16.4 0 a8.2 8.2 0 1 0 -16.4 0zM479.45 599.53 a8.2 8.2 0 1 0 16.4 0 a8.2 8.2 0 1 0 -16.4 0zM834.53 312.53 a8.2 8.2 0 1 0 16.4 0 a8.2 8.2 0 1 0 -16.4 0zM905.54 353.53 a8.2 8.2 0 1 0 16.4 0 a8.2 8.2 0 1 0 -16.4 0zM905.54 435.53 a8.2 8.2 0 1 0 16.4 0 a8.2 8.2 0 1 0 -16.4 0zM834.53 476.53 a8.2 8.2 0 1 0 16.4 0 a8.2 8.2 0 1 0 -16.4 0zM763.51 435.53 a8.2 8.2 0 1 0 16.4 0 a8.2 8.2 0 1 0 -16.4 0zM763.51 353.53 a8.2 8.2 0 1 0 16.4 0 a8.2 8.2 0 1 0 -16.4 0zM834.53 558.53 a8.2 8.2 0 1 0 16.4 0 a8.2 8.2 0 1 0 -16.4 0zM905.54 599.53 a8.2 8.2 0 1 0 16.4 0 a8.2 8.2 0 1 0 -16.4 0zM905.54 681.53 a8.2 8.2 0 1 0 16.4 0 a8.2 8.2 0 1 0 -16.4 0zM834.53 722.53 a8.2 8.2 0 1 0 16.4 0 a8.2 8.2 0 1 0 -16.4 0zM763.51 681.53 a8.2 8.2 0 1 0 16.4 0 a8.2 8.2 0 1 0 -16.4 0zM763.51 599.53 a8.2 8.2 0 1 0 16.4 0 a8.2 8.2 0 1 0 -16.4 0zM1118.59 312.53 a8.2 8.2 0 1 0 16.4 0 a8.2 8.2 0 1 0 -16.4 0zM1189.61 353.53 a8.2 8.2 0 1 0 16.4 0 a8.2 8.2 0 1 0 -16.4 0zM1189.61 435.53 a8.2 8.2 0 1 0 16.4 0 a8.2 8.2 0 1 0 -16.4 0zM1118.59 476.53 a8.2 8.2 0 1 0 16.4 0 a8.2 8.2 0 1 0 -16.4 0zM1047.58 435.53 a8.2 8.2 0 1 0 16.4 0 a8.2 8.2 0 1 0 -16.4 0zM1047.58 353.53 a8.2 8.2 0 1 0 16.4 0 a8.2 8.2 0 1 0 -16.4 0zM1118.59 558.53 a8.2 8.2 0 1 0 16.4 0 a8.2 8.2 0 1 0 -16.4 0zM1189.61 599.53 a8.2 8.2 0 1 0 16.4 0 a8.2 8.2 0 1 0 -16.4 0zM1189.61 681.53 a8.2 8.2 0 1 0 16.4 0 a8.2 8.2 0 1 0 -16.4 0zM1118.59 722.53 a8.2 8.2 0 1 0 16.4 0 a8.2 8.2 0 1 0 -16.4 0zM1047.58 681.53 a8.2 8.2 0 1 0 16.4 0 a8.2 8.2 0 1 0 -16.4 0zM1047.58 599.53 a8.2 8.2 0 1 0 16.4 0 a8.2 8.2 0 1 0 -16.4 0zM1260.62 312.53 a8.2 8.2 0 1 0 16.4 0 a8.2 8.2 0 1 0 -16.4 0zM1331.64 353.53 a8.2 8.2 0 1 0 16.4 0 a8.2 8.2 0 1 0 -16.4 0zM1331.64 435.53 a8.2 8.2 0 1 0 16.4 0 a8.2 8.2 0 1 0 -16.4 0zM1260.62 476.53 a8.2 8.2 0 1 0 16.4 0 a8.2 8.2 0 1 0 -16.4 0zM1260.62 558.53 a8.2 8.2 0 1 0 16.4 0 a8.2 8.2 0 1 0 -16.4 0zM1331.64 599.53 a8.2 8.2 0 1 0 16.4 0 a8.2 8.2 0 1 0 -16.4 0zM1331.64 681.53 a8.2 8.2 0 1 0 16.4 0 a8.2 8.2 0 1 0 -16.4 0zM1260.62 722.53 a8.2 8.2 0 1 0 16.4 0 a8.2 8.2 0 1 0 -16.4 0zM1402.66 66.53 a8.2 8.2 0 1 0 16.4 0 a8.2 8.2 0 1 0 -16.4 0zM1473.67 107.53 a8.2 8.2 0 1 0 16.4 0 a8.2 8.2 0 1 0 -16.4 0zM1473.67 189.53 a8.2 8.2 0 1 0 16.4 0 a8.2 8.2 0 1 0 -16.4 0zM1402.66 230.53 a8.2 8.2 0 1 0 16.4 0 a8.2 8.2 0 1 0 -16.4 0zM1331.64 189.53 a8.2 8.2 0 1 0 16.4 0 a8.2 8.2 0 1 0 -16.4 0zM1331.64 107.53 a8.2 8.2 0 1 0 16.4 0 a8.2 8.2 0 1 0 -16.4 0zM1544.69 230.53 a8.2 8.2 0 1 0 16.4 0 a8.2 8.2 0 1 0 -16.4 0zM1544.69 312.53 a8.2 8.2 0 1 0 16.4 0 a8.2 8.2 0 1 0 -16.4 0zM1473.67 353.53 a8.2 8.2 0 1 0 16.4 0 a8.2 8.2 0 1 0 -16.4 0zM1402.66 312.53 a8.2 8.2 0 1 0 16.4 0 a8.2 8.2 0 1 0 -16.4 0zM1615.7 353.53 a8.2 8.2 0 1 0 16.4 0 a8.2 8.2 0 1 0 -16.4 0zM1615.7 435.53 a8.2 8.2 0 1 0 16.4 0 a8.2 8.2 0 1 0 -16.4 0zM1544.69 476.53 a8.2 8.2 0 1 0 16.4 0 a8.2 8.2 0 1 0 -16.4 0zM1473.67 435.53 a8.2 8.2 0 1 0 16.4 0 a8.2 8.2 0 1 0 -16.4 0z" fill="#03305d"></path><path d="M35.61 23.16L52.93 33.16L52.93 53.16L35.61 63.16L18.29 53.16L18.29 33.16zM18.29 353.16L35.61 363.16L35.61 383.16L18.29 393.16L0.97 383.16L0.97 363.16zM52.93 -6.84L70.25 3.16L70.25 23.16L52.93 33.16L35.61 23.16L35.61 3.16zM52.93 173.16L70.25 183.16L70.25 203.16L52.93 213.16L35.61 203.16L35.61 183.16zM87.57 173.16L104.89 183.16L104.89 203.16L87.57 213.16L70.25 203.16L70.25 183.16zM87.57 233.16L104.89 243.16L104.89 263.16L87.57 273.16L70.25 263.16L70.25 243.16zM87.57 413.16L104.89 423.16L104.89 443.16L87.57 453.16L70.25 443.16L70.25 423.16zM104.89 443.16L122.22 453.16L122.22 473.16L104.89 483.16L87.57 473.16L87.57 453.16zM104.89 503.16L122.22 513.16L122.22 533.16L104.89 543.16L87.57 533.16L87.57 513.16zM139.54 83.16L156.86 93.16L156.86 113.16L139.54 123.16L122.22 113.16L122.22 93.16zM139.54 323.16L156.86 333.16L156.86 353.16L139.54 363.16L122.22 353.16L122.22 333.16zM139.54 503.16L156.86 513.16L156.86 533.16L139.54 543.16L122.22 533.16L122.22 513.16zM156.86 173.16L174.18 183.16L174.18 203.16L156.86 213.16L139.54 203.16L139.54 183.16zM191.5 473.16L208.82 483.16L208.82 503.16L191.5 513.16L174.18 503.16L174.18 483.16zM243.46 503.16L260.78 513.16L260.78 533.16L243.46 543.16L226.14 533.16L226.14 513.16zM260.78 -6.84L278.1 3.16L278.1 23.16L260.78 33.16L243.46 23.16L243.46 3.16zM278.1 23.16L295.43 33.16L295.43 53.16L278.1 63.16L260.78 53.16L260.78 33.16zM260.78 233.16L278.1 243.16L278.1 263.16L260.78 273.16L243.46 263.16L243.46 243.16zM260.78 473.16L278.1 483.16L278.1 503.16L260.78 513.16L243.46 503.16L243.46 483.16zM312.75 203.16L330.07 213.16L330.07 233.16L312.75 243.16L295.43 233.16L295.43 213.16zM347.39 23.16L364.71 33.16L364.71 53.16L347.39 63.16L330.07 53.16L330.07 33.16zM330.07 533.16L347.39 543.16L347.39 563.16L330.07 573.16L312.75 563.16L312.75 543.16zM347.39 563.16L364.71 573.16L364.71 593.16L347.39 603.16L330.07 593.16L330.07 573.16zM382.03 83.16L399.35 93.16L399.35 113.16L382.03 123.16L364.71 113.16L364.71 93.16zM382.03 143.16L399.35 153.16L399.35 173.16L382.03 183.16L364.71 173.16L364.71 153.16zM382.03 263.16L399.35 273.16L399.35 293.16L382.03 303.16L364.71 293.16L364.71 273.16zM364.71 353.16L382.03 363.16L382.03 383.16L364.71 393.16L347.39 383.16L347.39 363.16zM382.03 383.16L399.35 393.16L399.35 413.16L382.03 423.16L364.71 413.16L364.71 393.16zM364.71 533.16L382.03 543.16L382.03 563.16L364.71 573.16L347.39 563.16L347.39 543.16zM399.35 53.16L416.67 63.16L416.67 83.16L399.35 93.16L382.03 83.16L382.03 63.16zM399.35 173.16L416.67 183.16L416.67 203.16L399.35 213.16L382.03 203.16L382.03 183.16zM451.31 203.16L468.64 213.16L468.64 233.16L451.31 243.16L433.99 233.16L433.99 213.16zM468.64 173.16L485.96 183.16L485.96 203.16L468.64 213.16L451.31 203.16L451.31 183.16zM468.64 233.16L485.96 243.16L485.96 263.16L468.64 273.16L451.31 263.16L451.31 243.16zM503.28 173.16L520.6 183.16L520.6 203.16L503.28 213.16L485.96 203.16L485.96 183.16zM503.28 233.16L520.6 243.16L520.6 263.16L503.28 273.16L485.96 263.16L485.96 243.16zM520.6 563.16L537.92 573.16L537.92 593.16L520.6 603.16L503.28 593.16L503.28 573.16zM555.24 83.16L572.56 93.16L572.56 113.16L555.24 123.16L537.92 113.16L537.92 93.16zM555.24 143.16L572.56 153.16L572.56 173.16L555.24 183.16L537.92 173.16L537.92 153.16zM555.24 203.16L572.56 213.16L572.56 233.16L555.24 243.16L537.92 233.16L537.92 213.16zM537.92 233.16L555.24 243.16L555.24 263.16L537.92 273.16L520.6 263.16L520.6 243.16zM589.88 83.16L607.2 93.16L607.2 113.16L589.88 123.16L572.56 113.16L572.56 93.16zM589.88 203.16L607.2 213.16L607.2 233.16L589.88 243.16L572.56 233.16L572.56 213.16zM589.88 503.16L607.2 513.16L607.2 533.16L589.88 543.16L572.56 533.16L572.56 513.16zM589.88 563.16L607.2 573.16L607.2 593.16L589.88 603.16L572.56 593.16L572.56 573.16zM624.52 23.16L641.85 33.16L641.85 53.16L624.52 63.16L607.2 53.16L607.2 33.16zM607.2 233.16L624.52 243.16L624.52 263.16L607.2 273.16L589.88 263.16L589.88 243.16zM607.2 473.16L624.52 483.16L624.52 503.16L607.2 513.16L589.88 503.16L589.88 483.16zM693.81 143.16L711.13 153.16L711.13 173.16L693.81 183.16L676.49 173.16L676.49 153.16zM676.49 233.16L693.81 243.16L693.81 263.16L676.49 273.16L659.17 263.16L659.17 243.16zM711.13 233.16L728.45 243.16L728.45 263.16L711.13 273.16L693.81 263.16L693.81 243.16zM728.45 263.16L745.77 273.16L745.77 293.16L728.45 303.16L711.13 293.16L711.13 273.16zM763.09 83.16L780.41 93.16L780.41 113.16L763.09 123.16L745.77 113.16L745.77 93.16zM745.77 173.16L763.09 183.16L763.09 203.16L745.77 213.16L728.45 203.16L728.45 183.16zM763.09 443.16L780.41 453.16L780.41 473.16L763.09 483.16L745.77 473.16L745.77 453.16zM780.41 353.16L797.73 363.16L797.73 383.16L780.41 393.16L763.09 383.16L763.09 363.16zM797.73 443.16L815.06 453.16L815.06 473.16L797.73 483.16L780.41 473.16L780.41 453.16zM849.7 53.16L867.02 63.16L867.02 83.16L849.7 93.16L832.38 83.16L832.38 63.16zM867.02 563.16L884.34 573.16L884.34 593.16L867.02 603.16L849.7 593.16L849.7 573.16zM884.34 233.16L901.66 243.16L901.66 263.16L884.34 273.16L867.02 263.16L867.02 243.16zM901.66 443.16L918.98 453.16L918.98 473.16L901.66 483.16L884.34 473.16L884.34 453.16zM936.3 23.16L953.62 33.16L953.62 53.16L936.3 63.16L918.98 53.16L918.98 33.16zM936.3 263.16L953.62 273.16L953.62 293.16L936.3 303.16L918.98 293.16L918.98 273.16zM936.3 503.16L953.62 513.16L953.62 533.16L936.3 543.16L918.98 533.16L918.98 513.16zM936.3 563.16L953.62 573.16L953.62 593.16L936.3 603.16L918.98 593.16L918.98 573.16zM970.94 83.16L988.27 93.16L988.27 113.16L970.94 123.16L953.62 113.16L953.62 93.16zM970.94 203.16L988.27 213.16L988.27 233.16L970.94 243.16L953.62 233.16L953.62 213.16zM970.94 383.16L988.27 393.16L988.27 413.16L970.94 423.16L953.62 413.16L953.62 393.16zM1005.59 383.16L1022.91 393.16L1022.91 413.16L1005.59 423.16L988.27 413.16L988.27 393.16zM988.27 473.16L1005.59 483.16L1005.59 503.16L988.27 513.16L970.94 503.16L970.94 483.16zM1040.23 443.16L1057.55 453.16L1057.55 473.16L1040.23 483.16L1022.91 473.16L1022.91 453.16zM1057.55 233.16L1074.87 243.16L1074.87 263.16L1057.55 273.16L1040.23 263.16L1040.23 243.16zM1092.19 353.16L1109.51 363.16L1109.51 383.16L1092.19 393.16L1074.87 383.16L1074.87 363.16zM1126.83 -6.84L1144.15 3.16L1144.15 23.16L1126.83 33.16L1109.51 23.16L1109.51 3.16zM1126.83 53.16L1144.15 63.16L1144.15 83.16L1126.83 93.16L1109.51 83.16L1109.51 63.16zM1144.15 383.16L1161.48 393.16L1161.48 413.16L1144.15 423.16L1126.83 413.16L1126.83 393.16zM1126.83 413.16L1144.15 423.16L1144.15 443.16L1126.83 453.16L1109.51 443.16L1109.51 423.16zM1144.15 563.16L1161.48 573.16L1161.48 593.16L1144.15 603.16L1126.83 593.16L1126.83 573.16zM1178.8 23.16L1196.12 33.16L1196.12 53.16L1178.8 63.16L1161.48 53.16L1161.48 33.16zM1161.48 113.16L1178.8 123.16L1178.8 143.16L1161.48 153.16L1144.15 143.16L1144.15 123.16zM1161.48 233.16L1178.8 243.16L1178.8 263.16L1161.48 273.16L1144.15 263.16L1144.15 243.16zM1161.48 473.16L1178.8 483.16L1178.8 503.16L1161.48 513.16L1144.15 503.16L1144.15 483.16zM1213.44 383.16L1230.76 393.16L1230.76 413.16L1213.44 423.16L1196.12 413.16L1196.12 393.16zM1196.12 413.16L1213.44 423.16L1213.44 443.16L1196.12 453.16L1178.8 443.16L1178.8 423.16zM1213.44 443.16L1230.76 453.16L1230.76 473.16L1213.44 483.16L1196.12 473.16L1196.12 453.16zM1213.44 563.16L1230.76 573.16L1230.76 593.16L1213.44 603.16L1196.12 593.16L1196.12 573.16zM1230.76 53.16L1248.08 63.16L1248.08 83.16L1230.76 93.16L1213.44 83.16L1213.44 63.16zM1248.08 443.16L1265.4 453.16L1265.4 473.16L1248.08 483.16L1230.76 473.16L1230.76 453.16zM1248.08 563.16L1265.4 573.16L1265.4 593.16L1248.08 603.16L1230.76 593.16L1230.76 573.16zM1300.04 53.16L1317.36 63.16L1317.36 83.16L1300.04 93.16L1282.72 83.16L1282.72 63.16zM1300.04 113.16L1317.36 123.16L1317.36 143.16L1300.04 153.16L1282.72 143.16L1282.72 123.16zM1317.36 323.16L1334.69 333.16L1334.69 353.16L1317.36 363.16L1300.04 353.16L1300.04 333.16zM1300.04 413.16L1317.36 423.16L1317.36 443.16L1300.04 453.16L1282.72 443.16L1282.72 423.16zM1352.01 263.16L1369.33 273.16L1369.33 293.16L1352.01 303.16L1334.69 293.16L1334.69 273.16zM1352.01 383.16L1369.33 393.16L1369.33 413.16L1352.01 423.16L1334.69 413.16L1334.69 393.16zM1334.69 413.16L1352.01 423.16L1352.01 443.16L1334.69 453.16L1317.36 443.16L1317.36 423.16zM1386.65 503.16L1403.97 513.16L1403.97 533.16L1386.65 543.16L1369.33 533.16L1369.33 513.16zM1403.97 -6.84L1421.29 3.16L1421.29 23.16L1403.97 33.16L1386.65 23.16L1386.65 3.16zM1421.29 23.16L1438.61 33.16L1438.61 53.16L1421.29 63.16L1403.97 53.16L1403.97 33.16zM1403.97 113.16L1421.29 123.16L1421.29 143.16L1403.97 153.16L1386.65 143.16L1386.65 123.16zM1421.29 263.16L1438.61 273.16L1438.61 293.16L1421.29 303.16L1403.97 293.16L1403.97 273.16zM1438.61 473.16L1455.93 483.16L1455.93 503.16L1438.61 513.16L1421.29 503.16L1421.29 483.16z" stroke="url(#SvgjsRadialGradient1009)" stroke-width="2"></path></g><defs><mask id="SvgjsMask1008"><rect width="1440" height="560" fill="#ffffff"></rect></mask><radialGradient cx="720" cy="280" r="772.53" gradientUnits="userSpaceOnUse" id="SvgjsRadialGradient1009"><stop stop-color="rgba(5, 24, 38, 1)" offset="0"></stop><stop stop-color="rgba(34, 86, 244, 1)" offset="1"></stop></radialGradient></defs></svg>